<svg width="36" height="36" viewBox="0 0 36 36" fill="none" xmlns="http://www.w3.org/2000/svg">
<rect width="36" height="36" rx="18" fill="#EEF0F4"/>
<path d="M18 26.3334C13.3975 26.3334 9.66669 22.6026 9.66669 18.0001C9.66669 13.3976 13.3975 9.66675 18 9.66675C22.6025 9.66675 26.3334 13.3976 26.3334 18.0001C26.3334 22.6026 22.6025 26.3334 18 26.3334ZM18 24.6667C19.7681 24.6667 21.4638 23.9644 22.7141 22.7141C23.9643 21.4639 24.6667 19.7682 24.6667 18.0001C24.6667 16.232 23.9643 14.5363 22.7141 13.286C21.4638 12.0358 19.7681 11.3334 18 11.3334C16.2319 11.3334 14.5362 12.0358 13.286 13.286C12.0357 14.5363 11.3334 16.232 11.3334 18.0001C11.3334 19.7682 12.0357 21.4639 13.286 22.7141C14.5362 23.9644 16.2319 24.6667 18 24.6667ZM17.1667 20.5001H18.8334V22.1667H17.1667V20.5001ZM18.8334 19.1292V19.6667H17.1667V18.4167C17.1667 18.1957 17.2545 17.9838 17.4108 17.8275C17.567 17.6712 17.779 17.5834 18 17.5834C18.2368 17.5834 18.4686 17.5162 18.6686 17.3895C18.8686 17.2629 19.0286 17.0821 19.1298 16.8681C19.2311 16.6541 19.2695 16.4157 19.2406 16.1808C19.2117 15.9458 19.1167 15.7239 18.9665 15.5408C18.8164 15.3578 18.6174 15.2211 18.3927 15.1467C18.168 15.0723 17.9267 15.0633 17.697 15.1207C17.4674 15.178 17.2587 15.2994 17.0953 15.4708C16.932 15.6421 16.8206 15.8563 16.7742 16.0884L15.1392 15.7609C15.2405 15.2543 15.4746 14.7837 15.8175 14.3972C16.1603 14.0107 16.5996 13.7222 17.0905 13.5612C17.5814 13.4001 18.1063 13.3723 18.6114 13.4806C19.1166 13.5889 19.5839 13.8293 19.9657 14.1774C20.3475 14.5255 20.63 14.9688 20.7843 15.4618C20.9386 15.9548 20.9592 16.48 20.8441 16.9837C20.7289 17.4873 20.4821 17.9513 20.1288 18.3283C19.7755 18.7053 19.3285 18.9817 18.8334 19.1292Z" fill="#3F3937"/>
</svg>
