<svg width="36" height="36" viewBox="0 0 36 36" fill="none" xmlns="http://www.w3.org/2000/svg">
<rect width="36" height="36" rx="18" fill="#EEF0F4"/>
<path d="M10.5 10.5H25.5C25.721 10.5 25.933 10.5878 26.0893 10.7441C26.2456 10.9004 26.3334 11.1123 26.3334 11.3333V24.6667C26.3334 24.8877 26.2456 25.0996 26.0893 25.2559C25.933 25.4122 25.721 25.5 25.5 25.5H10.5C10.279 25.5 10.067 25.4122 9.91076 25.2559C9.75448 25.0996 9.66669 24.8877 9.66669 24.6667V11.3333C9.66669 11.1123 9.75448 10.9004 9.91076 10.7441C10.067 10.5878 10.279 10.5 10.5 10.5ZM24.6667 14.0317L18.06 19.9483L11.3334 14.0133V23.8333H24.6667V14.0317ZM11.7592 12.1667L18.0509 17.7183L24.2517 12.1667H11.7592Z" fill="#3F3937"/>
</svg>
