<svg width="14" height="15" viewBox="0 0 14 15" fill="none" xmlns="http://www.w3.org/2000/svg">
<g clip-path="url(#clip0_215_691)">
<path d="M10.7123 10.629L7 14.3414L3.28767 10.629C2.55345 9.89481 2.05344 8.95935 1.85087 7.94095C1.6483 6.92255 1.75228 5.86695 2.14964 4.90765C2.547 3.94834 3.2199 3.1284 4.08326 2.55153C4.94662 1.97465 5.96165 1.66675 7 1.66675C8.03835 1.66675 9.05338 1.97465 9.91673 2.55153C10.7801 3.1284 11.453 3.94834 11.8504 4.90765C12.2477 5.86695 12.3517 6.92255 12.1491 7.94095C11.9466 8.95935 11.4466 9.89481 10.7123 10.629ZM7 9.25004C7.61884 9.25004 8.21233 9.0042 8.64991 8.56662C9.0875 8.12903 9.33333 7.53554 9.33333 6.9167C9.33333 6.29786 9.0875 5.70437 8.64991 5.26679C8.21233 4.8292 7.61884 4.58337 7 4.58337C6.38116 4.58337 5.78767 4.8292 5.35008 5.26679C4.9125 5.70437 4.66667 6.29786 4.66667 6.9167C4.66667 7.53554 4.9125 8.12903 5.35008 8.56662C5.78767 9.0042 6.38116 9.25004 7 9.25004ZM7 8.08337C6.69058 8.08337 6.39383 7.96045 6.17504 7.74166C5.95625 7.52287 5.83333 7.22612 5.83333 6.9167C5.83333 6.60728 5.95625 6.31054 6.17504 6.09175C6.39383 5.87295 6.69058 5.75004 7 5.75004C7.30942 5.75004 7.60616 5.87295 7.82496 6.09175C8.04375 6.31054 8.16667 6.60728 8.16667 6.9167C8.16667 7.22612 8.04375 7.52287 7.82496 7.74166C7.60616 7.96045 7.30942 8.08337 7 8.08337Z" fill="#3F3937"/>
</g>
<defs>
<clipPath id="clip0_215_691">
<rect width="14" height="14" fill="white" transform="translate(0 0.5)"/>
</clipPath>
</defs>
</svg>
